<svg xmlns="http://www.w3.org/2000/svg" viewBox="0 0 53 53" shape-rendering="crispEdges" role="img" aria-label="WhatsApp-Kontakt Waxcelerate"><rect width="53" height="53" fill="#FFFFFF"/><path fill="#0B0D12" d="M4 4h7v1h-7zM14 4h3v1h-3zM18 4h1v1h-1zM20 4h1v1h-1zM22 4h6v1h-6zM30 4h3v1h-3zM34 4h2v1h-2zM40 4h1v1h-1zM42 4h7v1h-7zM4 5h1v1h-1zM10 5h1v1h-1zM13 5h1v1h-1zM18 5h1v1h-1zM20 5h2v1h-2zM23 5h1v1h-1zM26 5h2v1h-2zM29 5h2v1h-2zM32 5h1v1h-1zM34 5h4v1h-4zM39 5h1v1h-1zM42 5h1v1h-1zM48 5h1v1h-1zM4 6h1v1h-1zM6 6h3v1h-3zM10 6h1v1h-1zM13 6h3v1h-3zM20 6h1v1h-1zM22 6h2v1h-2zM26 6h1v1h-1zM31 6h1v1h-1zM33 6h2v1h-2zM36 6h1v1h-1zM39 6h1v1h-1zM42 6h1v1h-1zM44 6h3v1h-3zM48 6h1v1h-1zM4 7h1v1h-1zM6 7h3v1h-3zM10 7h1v1h-1zM13 7h2v1h-2zM17 7h3v1h-3zM24 7h1v1h-1zM26 7h1v1h-1zM31 7h1v1h-1zM39 7h2v1h-2zM42 7h1v1h-1zM44 7h3v1h-3zM48 7h1v1h-1zM4 8h1v1h-1zM6 8h3v1h-3zM10 8h1v1h-1zM13 8h1v1h-1zM17 8h1v1h-1zM19 8h3v1h-3zM24 8h7v1h-7zM32 8h1v1h-1zM34 8h1v1h-1zM36 8h5v1h-5zM42 8h1v1h-1zM44 8h3v1h-3zM48 8h1v1h-1zM4 9h1v1h-1zM10 9h1v1h-1zM12 9h3v1h-3zM16 9h1v1h-1zM21 9h4v1h-4zM28 9h1v1h-1zM30 9h2v1h-2zM34 9h4v1h-4zM42 9h1v1h-1zM48 9h1v1h-1zM4 10h7v1h-7zM12 10h1v1h-1zM14 10h1v1h-1zM16 10h1v1h-1zM18 10h1v1h-1zM20 10h1v1h-1zM22 10h1v1h-1zM24 10h1v1h-1zM26 10h1v1h-1zM28 10h1v1h-1zM30 10h1v1h-1zM32 10h1v1h-1zM34 10h1v1h-1zM36 10h1v1h-1zM38 10h1v1h-1zM40 10h1v1h-1zM42 10h7v1h-7zM13 11h2v1h-2zM17 11h1v1h-1zM19 11h1v1h-1zM21 11h4v1h-4zM28 11h2v1h-2zM33 11h1v1h-1zM35 11h2v1h-2zM38 11h1v1h-1zM4 12h1v1h-1zM7 12h1v1h-1zM9 12h2v1h-2zM12 12h1v1h-1zM15 12h1v1h-1zM17 12h2v1h-2zM23 12h7v1h-7zM32 12h2v1h-2zM35 12h1v1h-1zM37 12h1v1h-1zM41 12h1v1h-1zM43 12h1v1h-1zM4 13h1v1h-1zM7 13h1v1h-1zM9 13h1v1h-1zM12 13h2v1h-2zM17 13h3v1h-3zM21 13h1v1h-1zM24 13h1v1h-1zM29 13h1v1h-1zM32 13h1v1h-1zM39 13h1v1h-1zM41 13h1v1h-1zM44 13h1v1h-1zM48 13h1v1h-1zM4 14h1v1h-1zM7 14h2v1h-2zM10 14h1v1h-1zM13 14h2v1h-2zM17 14h2v1h-2zM21 14h2v1h-2zM24 14h2v1h-2zM28 14h1v1h-1zM31 14h1v1h-1zM36 14h1v1h-1zM38 14h1v1h-1zM46 14h1v1h-1zM48 14h1v1h-1zM5 15h2v1h-2zM8 15h1v1h-1zM12 15h1v1h-1zM15 15h2v1h-2zM18 15h1v1h-1zM20 15h1v1h-1zM23 15h3v1h-3zM27 15h1v1h-1zM29 15h3v1h-3zM34 15h2v1h-2zM37 15h1v1h-1zM44 15h1v1h-1zM47 15h2v1h-2zM5 16h2v1h-2zM8 16h3v1h-3zM13 16h1v1h-1zM16 16h1v1h-1zM18 16h8v1h-8zM28 16h1v1h-1zM30 16h2v1h-2zM33 16h1v1h-1zM35 16h2v1h-2zM39 16h1v1h-1zM42 16h4v1h-4zM4 17h1v1h-1zM7 17h1v1h-1zM13 17h1v1h-1zM15 17h2v1h-2zM20 17h3v1h-3zM27 17h3v1h-3zM31 17h1v1h-1zM35 17h5v1h-5zM41 17h1v1h-1zM44 17h2v1h-2zM48 17h1v1h-1zM5 18h1v1h-1zM7 18h1v1h-1zM10 18h1v1h-1zM13 18h2v1h-2zM21 18h2v1h-2zM24 18h1v1h-1zM27 18h5v1h-5zM33 18h1v1h-1zM37 18h1v1h-1zM40 18h1v1h-1zM42 18h1v1h-1zM44 18h1v1h-1zM46 18h2v1h-2zM5 19h5v1h-5zM12 19h1v1h-1zM15 19h3v1h-3zM22 19h1v1h-1zM26 19h1v1h-1zM29 19h1v1h-1zM31 19h2v1h-2zM35 19h3v1h-3zM43 19h3v1h-3zM4 20h8v1h-8zM19 20h2v1h-2zM22 20h1v1h-1zM27 20h1v1h-1zM29 20h1v1h-1zM34 20h3v1h-3zM39 20h1v1h-1zM42 20h2v1h-2zM45 20h1v1h-1zM48 20h1v1h-1zM6 21h1v1h-1zM8 21h1v1h-1zM11 21h1v1h-1zM14 21h1v1h-1zM16 21h3v1h-3zM20 21h3v1h-3zM24 21h1v1h-1zM28 21h3v1h-3zM36 21h1v1h-1zM39 21h1v1h-1zM42 21h2v1h-2zM45 21h4v1h-4zM5 22h1v1h-1zM7 22h4v1h-4zM14 22h2v1h-2zM18 22h1v1h-1zM26 22h1v1h-1zM28 22h2v1h-2zM31 22h3v1h-3zM35 22h2v1h-2zM38 22h2v1h-2zM43 22h2v1h-2zM46 22h3v1h-3zM5 23h2v1h-2zM8 23h1v1h-1zM11 23h1v1h-1zM13 23h5v1h-5zM20 23h2v1h-2zM25 23h6v1h-6zM36 23h1v1h-1zM38 23h1v1h-1zM40 23h2v1h-2zM43 23h1v1h-1zM47 23h1v1h-1zM5 24h2v1h-2zM8 24h6v1h-6zM15 24h4v1h-4zM20 24h1v1h-1zM22 24h1v1h-1zM24 24h5v1h-5zM30 24h1v1h-1zM32 24h1v1h-1zM34 24h2v1h-2zM37 24h2v1h-2zM40 24h6v1h-6zM47 24h1v1h-1zM4 25h1v1h-1zM6 25h1v1h-1zM8 25h1v1h-1zM12 25h2v1h-2zM15 25h1v1h-1zM18 25h7v1h-7zM28 25h1v1h-1zM30 25h1v1h-1zM33 25h1v1h-1zM35 25h1v1h-1zM39 25h2v1h-2zM44 25h1v1h-1zM48 25h1v1h-1zM4 26h3v1h-3zM8 26h1v1h-1zM10 26h1v1h-1zM12 26h4v1h-4zM19 26h1v1h-1zM22 26h3v1h-3zM26 26h1v1h-1zM28 26h4v1h-4zM33 26h1v1h-1zM35 26h6v1h-6zM42 26h1v1h-1zM44 26h1v1h-1zM46 26h1v1h-1zM48 26h1v1h-1zM5 27h1v1h-1zM7 27h2v1h-2zM12 27h1v1h-1zM17 27h2v1h-2zM21 27h1v1h-1zM24 27h1v1h-1zM28 27h3v1h-3zM32 27h2v1h-2zM35 27h1v1h-1zM37 27h1v1h-1zM40 27h1v1h-1zM44 27h2v1h-2zM47 27h2v1h-2zM8 28h5v1h-5zM16 28h1v1h-1zM19 28h1v1h-1zM22 28h9v1h-9zM32 28h14v1h-14zM5 29h2v1h-2zM8 29h1v1h-1zM12 29h1v1h-1zM18 29h1v1h-1zM23 29h1v1h-1zM27 29h1v1h-1zM32 29h1v1h-1zM37 29h4v1h-4zM44 29h1v1h-1zM46 29h1v1h-1zM48 29h1v1h-1zM4 30h4v1h-4zM10 30h2v1h-2zM13 30h2v1h-2zM16 30h1v1h-1zM19 30h4v1h-4zM26 30h1v1h-1zM29 30h4v1h-4zM35 30h1v1h-1zM41 30h1v1h-1zM43 30h2v1h-2zM46 30h2v1h-2zM4 31h2v1h-2zM7 31h1v1h-1zM9 31h1v1h-1zM13 31h1v1h-1zM15 31h9v1h-9zM25 31h3v1h-3zM31 31h1v1h-1zM35 31h3v1h-3zM41 31h3v1h-3zM47 31h2v1h-2zM5 32h1v1h-1zM7 32h2v1h-2zM10 32h1v1h-1zM14 32h2v1h-2zM18 32h2v1h-2zM23 32h2v1h-2zM27 32h2v1h-2zM33 32h2v1h-2zM36 32h1v1h-1zM41 32h1v1h-1zM43 32h2v1h-2zM46 32h1v1h-1zM4 33h1v1h-1zM7 33h3v1h-3zM11 33h1v1h-1zM14 33h4v1h-4zM22 33h2v1h-2zM26 33h2v1h-2zM30 33h4v1h-4zM36 33h1v1h-1zM40 33h2v1h-2zM45 33h1v1h-1zM47 33h1v1h-1zM4 34h1v1h-1zM9 34h2v1h-2zM13 34h2v1h-2zM16 34h4v1h-4zM23 34h2v1h-2zM26 34h1v1h-1zM28 34h1v1h-1zM31 34h1v1h-1zM33 34h1v1h-1zM35 34h2v1h-2zM38 34h1v1h-1zM40 34h1v1h-1zM42 34h1v1h-1zM44 34h1v1h-1zM46 34h3v1h-3zM7 35h1v1h-1zM12 35h1v1h-1zM15 35h3v1h-3zM23 35h3v1h-3zM28 35h1v1h-1zM31 35h1v1h-1zM33 35h2v1h-2zM36 35h2v1h-2zM42 35h3v1h-3zM47 35h2v1h-2zM10 36h3v1h-3zM14 36h4v1h-4zM19 36h1v1h-1zM21 36h4v1h-4zM26 36h2v1h-2zM31 36h2v1h-2zM34 36h2v1h-2zM37 36h3v1h-3zM41 36h2v1h-2zM4 37h2v1h-2zM9 37h1v1h-1zM11 37h1v1h-1zM14 37h1v1h-1zM16 37h5v1h-5zM23 37h2v1h-2zM26 37h1v1h-1zM28 37h1v1h-1zM32 37h2v1h-2zM40 37h2v1h-2zM47 37h2v1h-2zM8 38h1v1h-1zM10 38h2v1h-2zM16 38h2v1h-2zM19 38h6v1h-6zM29 38h1v1h-1zM33 38h1v1h-1zM38 38h3v1h-3zM42 38h1v1h-1zM44 38h5v1h-5zM5 39h4v1h-4zM14 39h3v1h-3zM19 39h1v1h-1zM21 39h1v1h-1zM23 39h2v1h-2zM27 39h1v1h-1zM29 39h4v1h-4zM37 39h1v1h-1zM39 39h1v1h-1zM41 39h1v1h-1zM43 39h1v1h-1zM45 39h1v1h-1zM4 40h1v1h-1zM7 40h2v1h-2zM10 40h3v1h-3zM14 40h1v1h-1zM16 40h2v1h-2zM20 40h2v1h-2zM24 40h7v1h-7zM32 40h1v1h-1zM35 40h3v1h-3zM40 40h6v1h-6zM48 40h1v1h-1zM12 41h4v1h-4zM18 41h2v1h-2zM22 41h1v1h-1zM24 41h1v1h-1zM28 41h1v1h-1zM38 41h1v1h-1zM40 41h1v1h-1zM44 41h1v1h-1zM47 41h2v1h-2zM4 42h7v1h-7zM13 42h4v1h-4zM19 42h2v1h-2zM22 42h3v1h-3zM26 42h1v1h-1zM28 42h2v1h-2zM32 42h4v1h-4zM37 42h1v1h-1zM40 42h1v1h-1zM42 42h1v1h-1zM44 42h4v1h-4zM4 43h1v1h-1zM10 43h1v1h-1zM12 43h2v1h-2zM16 43h3v1h-3zM20 43h1v1h-1zM22 43h1v1h-1zM24 43h1v1h-1zM28 43h3v1h-3zM32 43h2v1h-2zM36 43h1v1h-1zM38 43h1v1h-1zM40 43h1v1h-1zM44 43h1v1h-1zM4 44h1v1h-1zM6 44h3v1h-3zM10 44h1v1h-1zM13 44h1v1h-1zM15 44h1v1h-1zM18 44h3v1h-3zM23 44h6v1h-6zM30 44h1v1h-1zM33 44h1v1h-1zM36 44h1v1h-1zM38 44h8v1h-8zM48 44h1v1h-1zM4 45h1v1h-1zM6 45h3v1h-3zM10 45h1v1h-1zM12 45h3v1h-3zM18 45h1v1h-1zM22 45h4v1h-4zM27 45h1v1h-1zM29 45h2v1h-2zM33 45h1v1h-1zM35 45h1v1h-1zM40 45h1v1h-1zM44 45h1v1h-1zM46 45h2v1h-2zM4 46h1v1h-1zM6 46h3v1h-3zM10 46h1v1h-1zM14 46h2v1h-2zM18 46h2v1h-2zM22 46h1v1h-1zM24 46h3v1h-3zM28 46h2v1h-2zM32 46h2v1h-2zM35 46h1v1h-1zM40 46h1v1h-1zM43 46h2v1h-2zM46 46h3v1h-3zM4 47h1v1h-1zM10 47h1v1h-1zM16 47h1v1h-1zM20 47h1v1h-1zM22 47h3v1h-3zM26 47h1v1h-1zM28 47h1v1h-1zM30 47h2v1h-2zM35 47h2v1h-2zM43 47h2v1h-2zM4 48h7v1h-7zM12 48h6v1h-6zM25 48h1v1h-1zM28 48h2v1h-2zM32 48h4v1h-4zM38 48h1v1h-1zM40 48h1v1h-1zM42 48h4v1h-4zM47 48h1v1h-1z"/></svg>
